<svg width="28" height="28" viewBox="0 0 28 28" fill="none" xmlns="http://www.w3.org/2000/svg">
<path d="M23.7032 4.84727C21.9186 4.02841 20.0048 3.42511 18.0039 3.07957C17.9674 3.07291 17.931 3.08957 17.9123 3.1229C17.6661 3.56065 17.3935 4.13174 17.2026 4.5806C15.0505 4.25841 12.9094 4.25841 10.8014 4.5806C10.6104 4.12176 10.3279 3.56065 10.0807 3.1229C10.0619 3.09068 10.0255 3.07402 9.98906 3.07957C7.98923 3.42401 6.07549 4.02731 4.28976 4.84727C4.2743 4.85394 4.26105 4.86506 4.25225 4.87949C0.62229 10.3026 -0.372109 15.5924 0.11571 20.8166C0.117917 20.8421 0.132265 20.8666 0.152131 20.8821C2.54708 22.6409 4.86699 23.7087 7.14383 24.4164C7.18026 24.4275 7.21887 24.4142 7.24206 24.3842C7.78065 23.6487 8.26075 22.8732 8.67239 22.0576C8.69668 22.0099 8.67349 21.9532 8.62384 21.9343C7.86232 21.6454 7.1372 21.2932 6.43968 20.8932C6.38451 20.861 6.3801 20.7821 6.43085 20.7443C6.57763 20.6343 6.72446 20.5199 6.86461 20.4044C6.88997 20.3833 6.92531 20.3788 6.95512 20.3921C11.5375 22.4843 16.4985 22.4843 21.0268 20.3921C21.0566 20.3777 21.0919 20.3821 21.1184 20.4032C21.2586 20.5188 21.4054 20.6343 21.5533 20.7443C21.604 20.7821 21.6007 20.861 21.5455 20.8932C20.848 21.301 20.1229 21.6454 19.3603 21.9332C19.3106 21.9521 19.2885 22.0099 19.3128 22.0576C19.7333 22.872 20.2134 23.6475 20.742 24.3831C20.7641 24.4142 20.8038 24.4275 20.8403 24.4164C23.1282 23.7087 25.4481 22.6409 27.843 20.8821C27.864 20.8666 27.8772 20.8432 27.8794 20.8177C28.4633 14.7779 26.9016 9.53152 23.7396 4.8806C23.7319 4.86506 23.7186 4.85394 23.7032 4.84727ZM9.35669 17.6356C7.97708 17.6356 6.84032 16.369 6.84032 14.8135C6.84032 13.258 7.95504 11.9914 9.35669 11.9914C10.7694 11.9914 11.8951 13.2691 11.873 14.8135C11.873 16.369 10.7583 17.6356 9.35669 17.6356ZM18.6605 17.6356C17.281 17.6356 16.1442 16.369 16.1442 14.8135C16.1442 13.258 17.2589 11.9914 18.6605 11.9914C20.0732 11.9914 21.199 13.2691 21.1769 14.8135C21.1769 16.369 20.0732 17.6356 18.6605 17.6356Z" fill="white"/>
</svg>
